<?xml version="1.0" standalone="no"?>
<!DOCTYPE svg PUBLIC "-//W3C//DTD SVG 20010904//EN"
 "http://www.w3.org/TR/2001/REC-SVG-20010904/DTD/svg10.dtd">
<svg version="1.0" xmlns="http://www.w3.org/2000/svg"
 width="168" height="26" viewBox="0 0 500.000000 500.000000"
 preserveAspectRatio="xMidYMid meet">

<g transform="translate(0.000000,500.000000) scale(0.100000,-0.100000)"
fill="#000000" stroke="none">
<path d="M840 2545 l0 -375 60 0 60 0 0 255 c0 140 4 255 9 255 4 0 82 -43
172 -95 l164 -95 3 77 c2 42 -1 80 -5 84 -7 6 -394 233 -445 260 -17 9 -18
-11 -18 -366z"/>
<path d="M1617 2713 c-4 -3 -7 -80 -7 -170 l0 -163 55 0 55 0 0 170 0 170 -48
0 c-27 0 -52 -3 -55 -7z"/>
<path d="M1854 2706 c-40 -18 -64 -52 -64 -92 0 -48 33 -81 98 -99 93 -26 106
-33 92 -50 -21 -25 -90 -17 -90 11 0 10 -15 14 -55 14 -30 0 -55 -2 -55 -5 0
-3 6 -21 14 -40 20 -46 63 -67 145 -67 83 -1 127 20 148 69 26 63 -1 116 -69
133 -21 6 -56 15 -78 20 -41 11 -53 33 -24 44 29 11 54 6 66 -14 10 -16 24
-20 61 -20 49 0 49 0 42 27 -4 16 -12 34 -18 42 -33 39 -151 54 -213 27z"/>
<path d="M2150 2550 l0 -170 55 0 55 0 0 65 0 65 60 0 60 0 0 -65 0 -65 55 0
55 0 -2 168 -3 167 -52 3 -53 3 0 -65 0 -66 -60 0 -60 0 0 65 0 65 -55 0 -55
0 0 -170z"/>
<path d="M2591 2555 c-33 -91 -61 -168 -61 -170 0 -3 25 -5 55 -5 50 0 55 2
61 25 6 23 11 25 65 25 54 0 59 -2 65 -25 6 -23 11 -25 64 -25 l59 0 -29 78
c-15 42 -43 118 -62 167 l-34 90 -61 3 -61 3 -61 -166z m138 11 c16 -63 15
-66 -19 -66 -16 0 -30 4 -30 10 0 21 24 100 31 100 4 0 12 -20 18 -44z"/>
<path d="M2940 2550 l0 -170 50 0 49 0 3 77 3 77 65 -76 c64 -75 66 -77 113
-77 l47 -1 0 171 0 170 -47 -3 -48 -3 -5 -78 -5 -77 -68 80 c-66 78 -69 80
-113 80 l-44 0 0 -170z"/>
<path d="M3320 2675 l0 -45 55 0 55 0 0 -125 0 -125 55 0 55 0 0 125 0 125 55
0 55 0 0 45 0 45 -165 0 -165 0 0 -45z"/>
<path d="M3700 2551 l0 -171 55 0 55 0 0 65 0 66 58 -3 57 -3 3 -62 3 -63 49
0 50 0 0 170 0 170 -50 0 -49 0 -3 -62 -3 -63 -57 -3 -57 -3 -3 63 -3 63 -52
3 -53 3 0 -170z"/>
</g>
</svg>
